<?xml version="1.0" standalone="no"?>
<!DOCTYPE svg PUBLIC "-//W3C//DTD SVG 20010904//EN"
 "http://www.w3.org/TR/2001/REC-SVG-20010904/DTD/svg10.dtd">
<svg version="1.0" xmlns="http://www.w3.org/2000/svg"
 width="400.000000pt" height="400.000000pt" viewBox="0 0 400.000000 400.000000"
 preserveAspectRatio="xMidYMid meet">
<metadata>
Created by potrace 1.11, written by Peter Selinger 2001-2013
</metadata>
<g transform="translate(0.000000,400.000000) scale(0.100000,-0.100000)"
fill="#000000" stroke="none">
<path d="M331 3984 c-30 -8 -76 -26 -102 -41 -59 -31 -148 -123 -178 -181 -53
-104 -51 -29 -51 -1762 0 -1733 -2 -1658 51 -1762 30 -58 119 -150 177 -181
110 -60 18 -57 1772 -57 1754 0 1662 -3 1772 57 58 31 147 123 177 181 53 104
51 29 51 1762 0 1754 3 1662 -57 1772 -31 58 -123 147 -181 177 -104 53 -28
51 -1767 50 -1374 0 -1618 -2 -1664 -15z m2070 -884 c49 -14 113 -71 135 -122
18 -41 19 -95 22 -1178 2 -1111 2 -1135 -16 -1115 -11 11 -135 163 -276 338
-142 174 -261 317 -266 317 -5 0 -124 -143 -266 -318 -141 -174 -265 -326
-276 -337 -18 -20 -18 4 -16 1115 3 1083 4 1137 22 1178 21 48 85 108 131 121
42 13 761 13 806 1z"/>
</g>
</svg>
